<?xml version="1.0" encoding="UTF-8" standalone="no"?>
<!-- Created with Inkscape (http://www.inkscape.org/) -->

<svg
   xmlns:dc="http://purl.org/dc/elements/1.1/"
   xmlns:cc="http://creativecommons.org/ns#"
   xmlns:rdf="http://www.w3.org/1999/02/22-rdf-syntax-ns#"
   xmlns:svg="http://www.w3.org/2000/svg"
   xmlns="http://www.w3.org/2000/svg"
   xmlns:sodipodi="http://sodipodi.sourceforge.net/DTD/sodipodi-0.dtd"
   xmlns:inkscape="http://www.inkscape.org/namespaces/inkscape"
   width="158.75mm"
   height="66.145836mm"
   viewBox="0 0 158.75 66.145836"
   version="1.1"
   id="svg8"
   inkscape:version="0.92.3 (2405546, 2018-03-11)"
   sodipodi:docname="logo.svg">
  <defs
     id="defs2" />
  <sodipodi:namedview
     id="base"
     pagecolor="#ffffff"
     bordercolor="#666666"
     borderopacity="1.0"
     inkscape:pageopacity="0.0"
     inkscape:pageshadow="2"
     inkscape:zoom="1.4"
     inkscape:cx="230.19146"
     inkscape:cy="58.956189"
     inkscape:document-units="mm"
     inkscape:current-layer="layer1"
     showgrid="false"
     inkscape:window-width="1916"
     inkscape:window-height="1041"
     inkscape:window-x="0"
     inkscape:window-y="18"
     inkscape:window-maximized="0" />
  <metadata
     id="metadata5">
    <rdf:RDF>
      <cc:Work
         rdf:about="">
        <dc:format>image/svg+xml</dc:format>
        <dc:type
           rdf:resource="http://purl.org/dc/dcmitype/StillImage" />
        <dc:title />
      </cc:Work>
    </rdf:RDF>
  </metadata>
  <g
     inkscape:label="Layer 1"
     inkscape:groupmode="layer"
     id="layer1"
     transform="translate(-1.0241701e-8,-230.85416)">
    <g
       id="g1598"
       transform="matrix(0.26458333,0,0,0.26458333,112.62171,185.98406)" />
    <g
       id="g1600"
       transform="matrix(0.26458333,0,0,0.26458333,112.62171,185.98406)" />
    <g
       id="g1602"
       transform="matrix(0.26458333,0,0,0.26458333,112.62171,185.98406)" />
    <g
       id="g1604"
       transform="matrix(0.26458333,0,0,0.26458333,112.62171,185.98406)" />
    <g
       id="g1606"
       transform="matrix(0.26458333,0,0,0.26458333,112.62171,185.98406)" />
    <g
       id="g1608"
       transform="matrix(0.26458333,0,0,0.26458333,112.62171,185.98406)" />
    <g
       id="g1610"
       transform="matrix(0.26458333,0,0,0.26458333,112.62171,185.98406)" />
    <g
       id="g1612"
       transform="matrix(0.26458333,0,0,0.26458333,112.62171,185.98406)" />
    <g
       id="g1614"
       transform="matrix(0.26458333,0,0,0.26458333,112.62171,185.98406)" />
    <g
       id="g1616"
       transform="matrix(0.26458333,0,0,0.26458333,112.62171,185.98406)" />
    <g
       id="g1618"
       transform="matrix(0.26458333,0,0,0.26458333,112.62171,185.98406)" />
    <g
       id="g1620"
       transform="matrix(0.26458333,0,0,0.26458333,112.62171,185.98406)" />
    <g
       id="g1622"
       transform="matrix(0.26458333,0,0,0.26458333,112.62171,185.98406)" />
    <g
       id="g1624"
       transform="matrix(0.26458333,0,0,0.26458333,112.62171,185.98406)" />
    <g
       id="g1626"
       transform="matrix(0.26458333,0,0,0.26458333,112.62171,185.98406)" />
    <g
       id="g1089"
       inkscape:export-xdpi="96"
       inkscape:export-ydpi="96">
      <rect
         y="230.85416"
         x="5.102417e-07"
         height="66.145836"
         width="158.75"
         id="rect3344"
         style="opacity:1;fill:none;fill-opacity:1;stroke:#ffffff;stroke-width:0;stroke-linecap:square;stroke-linejoin:round;stroke-miterlimit:4;stroke-dasharray:none;stroke-dashoffset:0;stroke-opacity:1" />
      <g
         transform="translate(-36.270594,162.56706)"
         id="g3323">
        <g
           id="g2834"
           transform="translate(0,3.6784847)">
          <circle
             r="7.0327721"
             transform="rotate(38.244169)"
             id="circle1468"
             cy="56.672523"
             cx="105.8504"
             style="fill:#a14ff7;fill-opacity:1;stroke-width:0.52778774" />
          <path
             inkscape:connector-curvature="0"
             id="circle1468-5"
             d="m 48.155693,102.70398 a 7.0327725,7.0327725 0 0 0 -5.50044,2.6789 7.0327725,7.0327725 0 0 0 -0.0594,8.61602 v -0.9338 a 7.0327725,7.0327725 0 0 1 1.11776,-6.62388 7.0327725,7.0327725 0 0 1 6.88175,-2.54662 v -0.75757 a 7.0327725,7.0327725 0 0 0 -2.43964,-0.43305 z"
             style="fill:#ffffff;fill-opacity:1;stroke-width:0.52778774" />
          <path
             style="stroke-width:0.52778774"
             id="path1472"
             d="m 43.207903,116.17792 c -3.38864,-2.67084 -3.97262,-7.6007 -1.3018,-10.98935 2.67053,-3.38824 7.60037,-3.97224 10.98904,-1.3014 3.38822,2.67051 3.97256,7.59997 1.30173,10.98862 -2.67084,3.38864 -7.6003,3.97298 -10.98897,1.30213 z m 8.7071,-11.0472 c -2.70304,-2.13047 -6.63521,-1.66467 -8.76534,1.03797 -2.13048,2.70304 -1.66468,6.63523 1.03838,8.7657 2.70262,2.13014 6.63481,1.66431 8.76528,-1.03872 2.13014,-2.70264 1.66431,-6.63481 -1.03832,-8.76495 z"
             inkscape:connector-curvature="0" />
          <path
             id="path1436-6"
             d="m 74.415563,86.63783 c 0,0 10.39308,-5.99334 17.18464,4.58775 0,0 -11.16042,6.24035 -17.18464,-4.58775 z"
             style="fill:#ccff00;fill-opacity:1;stroke-width:0.52778774"
             inkscape:connector-curvature="0" />
          <path
             sodipodi:nodetypes="cccccc"
             inkscape:connector-curvature="0"
             id="path1446-1-9-3"
             d="m 90.964363,91.01553 c 0,0 -3.69892,-6.01369 -9.10672,-5.81525 4.6963,1.48027 8.57287,5.71038 8.57287,5.71038 -1.47804,2.16428 -7.18603,1.70088 -9.6043,1.19798 2.65702,0.92427 6.04579,0.99417 10.13814,-1.09309 z"
             style="fill:#ffffff;fill-opacity:1;stroke-width:0.52778774" />
          <path
             style="stroke-width:0.52778774"
             id="path1440-7"
             d="m 75.029633,89.02993 c -0.46455,-0.60953 -0.90356,-1.28492 -1.30584,-2.00755 l -0.3792,-0.6812 0.67542,-0.38936 c 0.10081,-0.0593 10.24769,-5.75309 17.36095,3.58007 0.30362,0.39837 0.60189,0.82466 0.88501,1.26654 l 0.45459,0.70801 -0.73435,0.41043 c -0.10273,0.0582 -10.42281,5.68614 -16.95667,-2.88684 z m 0.49635,-2.06711 c 2.44729,3.91809 5.90977,5.64699 10.29153,5.19077 1.98242,-0.20688 3.67574,-0.83318 4.613,-1.24293 -0.1017,-0.14339 -0.2051,-0.28233 -0.30878,-0.41832 -5.31686,-6.97619 -12.34447,-4.56182 -14.59612,-3.52925 z"
             inkscape:connector-curvature="0" />
          <path
             inkscape:connector-curvature="0"
             style="fill:#aa4400;stroke-width:0.52778774"
             d="m 70.516123,85.17579 c 0,0 -0.90985,-8.24644 5.12635,-18.25956 l 3.13671,3.24334 c 0,0 -6.20105,11.07692 -5.9051,15.89422 z"
             id="path1426" />
          <path
             style="stroke-width:0.52778774"
             inkscape:connector-curvature="0"
             d="m 73.738423,87.22015 -3.95559,-1.47288 -0.0537,-0.48487 c -0.039,-0.34751 -0.8694,-8.6287 5.23486,-18.75535 l 0.53142,-0.8814 4.2619,4.40617 -0.28788,0.51398 c -0.061,0.10916 -6.08388,10.92889 -5.80588,15.45883 z m -2.46403,-2.60717 0.83882,0.31217 c 0.4528,-4.70194 4.55178,-12.53438 5.69093,-14.63538 l -2.0054,-2.07329 c -4.49003,7.91511 -4.59284,14.59611 -4.52434,16.39643 z"
             id="path1430" />
          <path
             id="path1436"
             d="m 72.485403,85.09715 c 0,0 4.69238,-11.04164 16.48462,-6.67956 0,0 -5.15649,11.70075 -16.48462,6.67956 z"
             style="fill:#ccff00;fill-opacity:1;stroke-width:0.52778774"
             inkscape:connector-curvature="0" />
          <path
             sodipodi:nodetypes="cccccc"
             inkscape:connector-curvature="0"
             id="path1446-1-9"
             d="m 88.322703,78.60721 c 0,0 -6.69945,-2.22798 -10.71388,1.40079 4.54874,-1.88555 10.23756,-1.13788 10.23756,-1.13788 0.25938,2.60794 -4.41049,5.92279 -6.58605,7.09236 2.62933,-1.00032 5.26984,-3.12549 7.06237,-7.35524 z"
             style="fill:#ffffff;fill-opacity:1;stroke-width:0.52778774" />
          <path
             style="stroke-width:0.52778774"
             id="path1440"
             d="m 74.415563,86.63783 c -0.73785,-0.20715 -1.49494,-0.48227 -2.25114,-0.81722 l -0.71283,-0.31575 0.30503,-0.71747 c 0.0448,-0.10805 4.72087,-10.76227 16.01891,-7.59039 0.48223,0.13538 0.97701,0.29628 1.46906,0.47875 l 0.78917,0.29179 -0.3394,0.76976 c -0.047,0.10833 -4.90102,10.81421 -15.27881,7.90066 z m -0.84779,-1.9495 c 4.31261,1.65591 8.11828,0.95255 11.34287,-2.04911 1.4586,-1.35841 2.43389,-2.87776 2.93574,-3.7691 -0.16752,-0.0533 -0.33372,-0.10201 -0.49836,-0.14821 -8.44483,-2.37088 -12.60376,3.78703 -13.78039,5.96686 z"
             inkscape:connector-curvature="0" />
          <circle
             r="7.0327721"
             transform="rotate(38.244169)"
             style="fill:#a14ff7;fill-opacity:1;stroke-width:0.52778774"
             cx="112.07462"
             cy="66.898407"
             id="circle1458" />
          <path
             inkscape:connector-curvature="0"
             id="circle1468-5-5"
             d="m 39.654863,119.8978 a 7.0327726,7.0327726 0 0 0 1.15304,6.00848 7.0327726,7.0327726 0 0 0 8.30287,2.30252 l -0.90154,-0.24333 a 7.0327726,7.0327726 0 0 1 -6.10377,-2.8052 7.0327726,7.0327726 0 0 1 -0.66538,-7.30761 l -0.7314,-0.1974 a 7.0327726,7.0327726 0 0 0 -1.05381,2.24251 z"
             style="fill:#ffffff;fill-opacity:1;stroke-width:0.52778774" />
          <path
             sodipodi:nodetypes="cccccscccc"
             inkscape:connector-curvature="0"
             id="circle1468-5-1-2-9"
             d="m 53.203423,120.52763 c -0.59633,-2.0617 -2.10143,-3.73825 -4.08711,-4.55268 -2.96996,-1.21342 -6.38467,-0.26304 -8.30072,2.31025 l 0.89785,-0.25658 c 1.95522,-1.36385 4.46823,-1.64438 6.67606,-0.74525 0.31164,0.12781 1.06182,1.29548 1.23013,2.28164 0.38061,2.22994 1.84716,3.79622 3.00909,4.47075 l 0.92887,-1.17699 c 0.0619,-0.83014 -0.12431,-1.53103 -0.35416,-2.33111 z"
             style="fill:#8b40e5;fill-opacity:1;stroke-width:0.52778774" />
          <path
             sodipodi:nodetypes="cccccccc"
             inkscape:connector-curvature="0"
             id="circle1468-5-1-2-22"
             d="m 46.872003,115.45479 c 2.29883,0.48242 4.60668,0.0275 5.74372,-2.10736 2.22828,-2.30821 2.61198,-5.83188 0.93272,-8.56559 l 1.92653,5.58949 c -2.86616,0.4674 -3.06984,0.58334 -4.35612,1.66555 -0.81699,0.77758 -1.6495,2.79137 -1.28466,3.22415 -2.0028,1.84062 -4.18452,-0.0199 -2.96224,0.19376 z"
             style="fill:#8b40e5;fill-opacity:1;stroke-width:0.52778774" />
          <path
             style="stroke-width:0.52778774"
             inkscape:connector-curvature="0"
             d="m 41.766973,128.06118 c -3.38867,-2.67084 -3.97298,-7.60031 -1.30214,-10.98895 2.67084,-3.38865 7.6007,-3.97264 10.98935,-1.3018 3.38865,2.67082 3.97224,7.60036 1.3014,10.98901 -2.67084,3.38867 -7.59997,3.97258 -10.98861,1.30174 z m 8.70677,-11.0468 c -2.70306,-2.13048 -6.63524,-1.66465 -8.7657,1.0384 -2.13013,2.70262 -1.66433,6.63479 1.03873,8.76527 2.70304,2.13045 6.6348,1.66433 8.76494,-1.03831 2.13045,-2.70304 1.66467,-6.63523 -1.03797,-8.76536 z"
             id="path1462" />
          <circle
             r="7.0327721"
             transform="rotate(38.244169)"
             id="circle1478"
             cy="56.672523"
             cx="118.29828"
             style="fill:#a14ff7;fill-opacity:1;stroke-width:0.52778774" />
          <path
             inkscape:connector-curvature="0"
             id="circle1468-5-27-61"
             d="m 54.734213,124.12654 a 7.0327726,7.0327726 0 0 0 6.11811,-0.006 7.0327726,7.0327726 0 0 0 3.81806,-7.7241 l -0.40801,0.83995 a 7.0327726,7.0327726 0 0 1 -3.89961,5.46975 7.0327726,7.0327726 0 0 1 -7.3028,-0.7162 l -0.33101,0.68143 a 7.0327726,7.0327726 0 0 0 2.00523,1.45548 z"
             style="fill:#ffffff;fill-opacity:1;stroke-width:0.52778774" />
          <path
             sodipodi:nodetypes="ccccccccc"
             inkscape:connector-curvature="0"
             id="circle1468-5-1-2-5"
             d="m 53.377603,112.7047 c 1.12335,1.50449 2.8722,2.41369 4.74899,2.46892 2.80567,0.0788 5.30901,-1.75126 6.08529,-4.44855 l -0.65617,0.48667 c -1.18089,1.71902 -3.15221,2.72279 -5.237,2.66663 -2.30843,-0.0679 -4.38444,-1.42273 -5.37594,-3.50849 l 0.67356,0.22416 c 0.20503,0.6988 -0.6734,1.52631 -0.23875,2.11063 z"
             style="fill:#8b40e5;fill-opacity:1;stroke-width:0.46173584" />
          <path
             style="stroke-width:0.52778774"
             id="path1482"
             d="m 52.984623,123.88367 c -3.38865,-2.67084 -3.97262,-7.60072 -1.30178,-10.98937 2.67051,-3.38823 7.60037,-3.97222 10.98901,-1.3014 3.38825,2.67052 3.97256,7.59999 1.30174,10.98861 -2.67126,3.38833 -7.60072,3.97266 -10.98897,1.30216 z m 8.70711,-11.04722 c -2.70303,-2.13045 -6.63522,-1.66465 -8.76536,1.03797 -2.13045,2.70306 -1.66465,6.63525 1.03839,8.7657 2.70264,2.13016 6.63483,1.66431 8.76528,-1.03873 2.12974,-2.70293 1.66433,-6.6348 -1.03831,-8.76494 z"
             inkscape:connector-curvature="0" />
          <circle
             r="7.0327721"
             transform="rotate(38.244169)"
             id="circle1490"
             cy="46.892082"
             cx="99.626175"
             style="fill:#a14ff7;fill-opacity:1;stroke-width:0.52778774" />
          <path
             inkscape:connector-curvature="0"
             id="circle1468-5-6"
             d="m 49.254313,91.31438 a 7.0327726,7.0327726 0 0 0 -5.50044,2.6789 7.0327726,7.0327726 0 0 0 -0.0594,8.61602 v -0.9338 a 7.0327726,7.0327726 0 0 1 1.11776,-6.62388 7.0327726,7.0327726 0 0 1 6.88175,-2.54662 v -0.75757 a 7.0327726,7.0327726 0 0 0 -2.43964,-0.43305 z"
             style="fill:#ffffff;fill-opacity:1;stroke-width:0.52778774" />
          <path
             sodipodi:nodetypes="ccccccccc"
             inkscape:connector-curvature="0"
             id="circle1468-5-1-2-3"
             d="m 46.085203,104.58519 c 2.01018,0.75193 4.25368,0.54481 6.09221,-0.56244 2.74611,-1.65891 4.02142,-4.96603 3.10012,-8.03919 l -0.60107,1.36128 c -0.0725,2.38279 -2.64629,2.84279 -2.98153,4.74591 -0.88505,2.54785 -5.22851,1.91083 -7.47129,0.51855 l -0.2677,0.70869 c 0.62915,0.54508 1.35008,0.97414 2.12923,1.26719 z"
             style="fill:#8b40e5;fill-opacity:1;stroke-width:0.52778774" />
          <path
             inkscape:connector-curvature="0"
             id="circle1468-5-1-2-7"
             d="m 53.299893,103.5572 a 7.0327726,7.0327726 0 0 0 1.5364,-5.92205 7.0327726,7.0327726 0 0 0 -6.51195,-5.64215 l 0.70995,0.60659 a 7.0327726,7.0327726 0 0 1 4.30986,5.1527 7.0327726,7.0327726 0 0 1 -2.53427,6.88631 l 0.57595,0.49212 a 7.0327726,7.0327726 0 0 0 1.91404,-1.57349 z"
             style="fill:#8b40e5;fill-opacity:1;stroke-width:0.52778774" />
          <path
             style="stroke-width:0.52778774"
             id="path1494"
             d="m 44.374203,104.64402 c -3.38865,-2.67083 -3.97266,-7.60071 -1.30182,-10.98935 2.6705,-3.38823 7.6004,-3.97223 10.98903,-1.3014 3.38825,2.67052 3.97256,7.59996 1.30172,10.98861 -2.67085,3.38866 -7.60069,3.97266 -10.98893,1.30214 z m 8.70709,-11.04722 c -2.70304,-2.13044 -6.63523,-1.66463 -8.76536,1.03799 -2.13048,2.70305 -1.66465,6.63524 1.03839,8.76569 2.70263,2.13014 6.6348,1.66434 8.76528,-1.03872 2.13013,-2.70262 1.66433,-6.63481 -1.03831,-8.76496 z"
             inkscape:connector-curvature="0" />
          <circle
             r="7.0327721"
             transform="rotate(38.244169)"
             id="circle1500"
             cy="46.892082"
             cx="124.52248"
             style="fill:#a14ff7;fill-opacity:1;stroke-width:0.52778774" />
          <path
             sodipodi:nodetypes="ccccscscccc"
             inkscape:connector-curvature="0"
             id="circle1468-5-1-2-2"
             d="m 69.954813,108.93763 c -2.22319,-0.69676 -4.56252,-0.49368 -5.92722,1.51638 -2.45005,2.07131 -2.6532,5.42126 -1.25868,8.31062 l -0.34651,-0.79774 c -0.17618,-1.3692 -0.0447,-2.97106 0.72871,-3.99839 0.5622,-0.74672 1.61958,-0.97819 2.38512,-1.62688 0.7545,-0.63614 1.16833,-1.34881 1.9617,-1.73144 1.32877,-0.64084 3.08257,-0.65438 4.60681,-0.015 l 0.15256,-0.74205 c -0.70726,-0.43901 -1.48684,-0.74898 -2.30245,-0.91546 z"
             style="fill:#8b40e5;fill-opacity:1;stroke-width:0.52778774" />
          <path
             inkscape:connector-curvature="0"
             id="circle1468-5-27-8"
             d="m 65.803853,120.41654 a 7.0327726,7.0327726 0 0 0 6.11811,-0.006 7.0327726,7.0327726 0 0 0 3.81806,-7.7241 l -0.40801,0.83995 a 7.0327726,7.0327726 0 0 1 -3.89961,5.46975 7.0327726,7.0327726 0 0 1 -7.3028,-0.7162 l -0.33101,0.68143 a 7.0327726,7.0327726 0 0 0 2.00523,1.45548 z"
             style="fill:#ffffff;fill-opacity:1;stroke-width:0.52778774" />
          <path
             style="stroke-width:0.52778774"
             id="path1504"
             d="m 63.926813,120.05483 c -3.38864,-2.67084 -3.97264,-7.60068 -1.30179,-10.98935 2.6705,-3.38822 7.60036,-3.97224 10.98903,-1.3014 3.38822,2.67051 3.97256,7.59997 1.30172,10.98864 -2.67085,3.38864 -7.60073,3.97264 -10.98896,1.30211 z m 8.7071,-11.04719 c -2.70304,-2.13048 -6.63523,-1.66466 -8.76536,1.03798 -2.13046,2.70304 -1.66465,6.63521 1.03838,8.76568 2.70264,2.13014 6.63483,1.66434 8.76528,-1.03872 2.13014,-2.70262 1.66434,-6.63481 -1.0383,-8.76494 z"
             inkscape:connector-curvature="0" />
          <circle
             r="7.0327721"
             transform="rotate(38.244169)"
             id="circle1510"
             cy="46.892082"
             cx="112.07462"
             style="fill:#a14ff7;fill-opacity:1;stroke-width:0.52778774" />
          <path
             sodipodi:nodetypes="ccccccccc"
             inkscape:connector-curvature="0"
             id="circle1468-5-1-2"
             d="m 56.673993,112.71559 c 2.01018,0.75193 4.25368,0.54481 6.09221,-0.56244 2.74611,-1.65891 4.02142,-4.96603 3.10012,-8.03919 l -0.32996,0.87356 c -0.0725,2.38279 -1.48082,4.29936 -3.5199,5.53431 -2.26132,1.36195 -5.24523,1.59344 -7.488,0.20117 l 0.0163,0.72539 c 0.62915,0.54508 1.35008,0.97414 2.12923,1.26719 z"
             style="fill:#8b40e5;fill-opacity:1;stroke-width:0.52778774" />
          <path
             inkscape:connector-curvature="0"
             id="circle1468-5-1"
             d="m 59.176173,99.29912 a 7.0327726,7.0327726 0 0 0 -5.50044,2.6789 7.0327726,7.0327726 0 0 0 -0.0594,8.61602 v -0.9338 a 7.0327726,7.0327726 0 0 1 1.11776,-6.62388 7.0327726,7.0327726 0 0 1 6.88175,-2.54662 v -0.75757 a 7.0327726,7.0327726 0 0 0 -2.43964,-0.43305 z"
             style="fill:#ffffff;fill-opacity:1;stroke-width:0.52778774" />
          <path
             style="stroke-width:0.52778774"
             id="path1514"
             d="m 54.150503,112.34943 c -3.38865,-2.67085 -3.97265,-7.60069 -1.3018,-10.98935 2.6705,-3.38823 7.60038,-3.97225 10.98903,-1.3014 3.38864,2.67084 3.97256,7.59996 1.30172,10.98863 -2.67085,3.38864 -7.60029,3.97296 -10.98895,1.30212 z m 8.70711,-11.0472 c -2.70306,-2.13048 -6.63525,-1.66465 -8.76538,1.03796 -2.13046,2.70306 -1.66465,6.63523 1.0384,8.7657 2.70304,2.13046 6.63481,1.66434 8.76528,-1.03872 2.13012,-2.70262 1.66434,-6.63481 -1.0383,-8.76494 z"
             inkscape:connector-curvature="0" />
          <circle
             r="7.0327721"
             transform="rotate(38.244169)"
             id="circle1522"
             cy="28.220514"
             cx="99.626175"
             style="fill:#a14ff7;fill-opacity:1;stroke-width:0.52778774" />
          <path
             inkscape:connector-curvature="0"
             id="circle1468-5-60-9"
             d="m 60.547063,76.60148 a 7.0327726,7.0327726 0 0 0 -5.50044,2.6789 7.0327726,7.0327726 0 0 0 -0.0594,8.61602 v -0.9338 a 7.0327726,7.0327726 0 0 1 1.11776,-6.62388 7.0327726,7.0327726 0 0 1 6.88175,-2.54662 v -0.75757 a 7.0327726,7.0327726 0 0 0 -2.43964,-0.43305 z"
             style="fill:#ffffff;fill-opacity:1;stroke-width:0.52778774" />
          <path
             style="stroke-width:0.52778774"
             id="path1526"
             d="m 55.932463,89.97935 c -3.38863,-2.67084 -3.97296,-7.60031 -1.30214,-10.98893 2.67052,-3.38825 7.60041,-3.97223 10.98903,-1.3014 3.38825,2.67052 3.97256,7.59996 1.30172,10.98861 -2.6705,3.38823 -7.60036,3.97222 -10.98861,1.30172 z m 8.70677,-11.0468 c -2.70304,-2.13046 -6.63522,-1.66465 -8.76536,1.03799 -2.13045,2.70303 -1.66431,6.6348 1.03873,8.76526 2.70264,2.13015 6.63481,1.66433 8.76494,-1.03829 2.13014,-2.70264 1.66433,-6.63481 -1.03831,-8.76496 z"
             inkscape:connector-curvature="0" />
          <circle
             r="7.0327721"
             transform="rotate(38.244169)"
             id="circle1532"
             cy="28.220514"
             cx="124.52248"
             style="fill:#a14ff7;fill-opacity:1;stroke-width:0.52778774" />
          <path
             inkscape:connector-curvature="0"
             id="circle1468-5-27-6"
             d="m 79.985593,106.65992 a 7.0327726,7.0327726 0 0 0 5.6089,-2.44369 7.0327726,7.0327726 0 0 0 0.42356,-8.60581 l -0.0395,0.93297 a 7.0327726,7.0327726 0 0 1 -1.39677,6.5707 7.0327726,7.0327726 0 0 1 -6.98325,2.25344 l -0.032,0.7569 a 7.0327726,7.0327726 0 0 0 2.41915,0.53578 z"
             style="fill:#ffffff;fill-opacity:1;stroke-width:0.52778774" />
          <path
             inkscape:connector-curvature="0"
             id="circle1468-5-1-2-36"
             d="m 84.679323,93.77795 a 7.0327726,7.0327726 0 0 0 -6.05137,-0.90131 7.0327726,7.0327726 0 0 0 -4.9216,7.07228 l 0.52808,-0.77013 a 7.0327726,7.0327726 0 0 1 4.66786,-4.83076 7.0327726,7.0327726 0 0 1 7.11576,1.79156 l 0.42843,-0.62478 a 7.0327726,7.0327726 0 0 0 -1.76714,-1.73684 z"
             style="fill:#8b40e5;fill-opacity:1;stroke-width:0.52778774" />
          <path
             style="stroke-width:0.52778774"
             id="path1536"
             d="m 75.485103,105.39017 c -3.38865,-2.67085 -3.97296,-7.60029 -1.30214,-10.98893 2.67052,-3.38825 7.60036,-3.97225 10.98903,-1.3014 3.38823,2.6705 3.97256,7.59996 1.30172,10.98863 -2.6705,3.38823 -7.60038,3.9722 -10.98861,1.3017 z m 8.70675,-11.04678 c -2.70304,-2.13048 -6.6352,-1.66467 -8.76536,1.03797 -2.13045,2.70303 -1.66431,6.6348 1.03873,8.76526 2.70264,2.13013 6.6348,1.66435 8.76494,-1.03829 2.13015,-2.70264 1.66433,-6.63483 -1.03831,-8.76494 z"
             inkscape:connector-curvature="0" />
          <circle
             r="7.0327721"
             transform="rotate(38.244169)"
             id="circle1542"
             cy="28.220514"
             cx="112.07462"
             style="fill:#a14ff7;fill-opacity:1;stroke-width:0.52778774" />
          <path
             inkscape:connector-curvature="0"
             id="circle1468-5-60"
             d="m 70.433503,84.52108 a 7.0327726,7.0327726 0 0 0 -5.50044,2.6789 7.0327726,7.0327726 0 0 0 -0.0594,8.61602 v -0.9338 a 7.0327726,7.0327726 0 0 1 1.11776,-6.62388 7.0327726,7.0327726 0 0 1 6.88175,-2.54662 v -0.75757 a 7.0327726,7.0327726 0 0 0 -2.43964,-0.43305 z"
             style="fill:#ffffff;fill-opacity:1;stroke-width:0.52778774" />
          <path
             inkscape:connector-curvature="0"
             id="circle1468-5-1-2-97"
             d="m 74.493853,97.43854 a 7.0327726,7.0327726 0 0 0 3.09851,-5.27548 7.0327726,7.0327726 0 0 0 -4.71919,-7.20893 l 0.51683,0.77774 a 7.0327726,7.0327726 0 0 1 2.73512,6.13549 7.0327726,7.0327726 0 0 1 -4.32216,5.92981 l 0.41928,0.63096 a 7.0327726,7.0327726 0 0 0 2.27159,-0.98958 z"
             style="fill:#8b40e5;fill-opacity:1;stroke-width:0.52778774" />
          <path
             style="stroke-width:0.52778774"
             id="path1546"
             d="m 65.708783,97.68476 c -3.38865,-2.67084 -3.97296,-7.60029 -1.30214,-10.98893 2.67052,-3.38825 7.60038,-3.97225 10.98903,-1.3014 3.38865,2.67084 3.97256,7.59996 1.30172,10.98861 -2.6705,3.38825 -7.59994,3.97256 -10.98861,1.30172 z m 8.70677,-11.0468 c -2.70306,-2.13046 -6.63522,-1.66465 -8.76536,1.03799 -2.13045,2.70303 -1.66433,6.6348 1.03871,8.76526 2.70306,2.13047 6.63482,1.66433 8.76496,-1.03829 2.13013,-2.70264 1.66433,-6.63481 -1.03831,-8.76496 z"
             inkscape:connector-curvature="0" />
          <circle
             r="7.0327721"
             transform="rotate(38.244169)"
             id="circle1554"
             cy="36.667267"
             cx="94.291855"
             style="fill:#a14ff7;fill-opacity:1;stroke-width:0.52778774" />
          <path
             inkscape:connector-curvature="0"
             id="circle1468-5-2"
             d="m 51.532153,80.19155 a 7.0327726,7.0327726 0 0 0 -5.50044,2.6789 7.0327726,7.0327726 0 0 0 -0.0594,8.61602 v -0.9338 a 7.0327726,7.0327726 0 0 1 1.11776,-6.62388 7.0327726,7.0327726 0 0 1 6.88175,-2.54662 V 80.6246 a 7.0327726,7.0327726 0 0 0 -2.43964,-0.43305 z"
             style="fill:#ffffff;fill-opacity:1;stroke-width:0.52778774" />
          <path
             style="stroke-width:0.52778774"
             id="path1558"
             d="m 46.513513,93.31055 c -3.38865,-2.67085 -3.97256,-7.59997 -1.30172,-10.98862 2.67052,-3.38824 7.59996,-3.97256 10.98861,-1.30174 3.38867,2.67085 3.97298,7.60031 1.30214,10.98896 -2.67051,3.38822 -7.60039,3.97224 -10.98903,1.3014 z m 8.70677,-11.0468 c -2.70262,-2.13014 -6.63481,-1.66434 -8.76496,1.0383 -2.13014,2.70262 -1.66431,6.63483 1.03831,8.76496 2.70262,2.13012 6.63522,1.66464 8.76536,-1.03798 2.13015,-2.70264 1.66435,-6.63481 -1.03871,-8.76528 z"
             inkscape:connector-curvature="0" />
          <circle
             r="7.0327721"
             transform="rotate(38.244169)"
             id="circle1564"
             cy="36.667267"
             cx="119.18761"
             style="fill:#a14ff7;fill-opacity:1;stroke-width:0.52778774" />
          <path
             inkscape:connector-curvature="0"
             id="circle1468-5-27-7"
             d="m 77.819363,101.71049 a 7.0327726,7.0327726 0 0 0 -3.2341,-5.19344 7.0327726,7.0327726 0 0 0 -8.5758,0.83362 l 0.92877,-0.0967 a 7.0327726,7.0327726 0 0 1 6.70404,0.42544 7.0327726,7.0327726 0 0 1 3.24594,6.58086 l 0.75349,-0.0785 a 7.0327726,7.0327726 0 0 0 0.17794,-2.47138 z"
             style="fill:#ffffff;fill-opacity:1;stroke-width:0.52778774" />
          <path
             inkscape:connector-curvature="0"
             id="circle1468-5-1-2-8"
             d="m 64.205743,102.5067 a 7.0327726,7.0327726 0 0 0 2.63203,5.52302 7.0327726,7.0327726 0 0 0 8.6152,0.13267 l -0.93376,-0.008 a 7.0327726,7.0327726 0 0 1 -6.61414,-1.17406 7.0327726,7.0327726 0 0 1 -2.488,-6.90315 l -0.75754,-0.006 a 7.0327726,7.0327726 0 0 0 -0.45379,2.43587 z"
             style="fill:#8b40e5;fill-opacity:1;stroke-width:0.52778774" />
          <path
             style="stroke-width:0.52778774"
             id="path1568"
             d="m 66.066543,108.72168 c -3.38864,-2.67082 -3.97256,-7.59996 -1.30172,-10.98861 2.67051,-3.38825 7.59997,-3.97256 10.98862,-1.30172 3.38866,2.67084 3.97298,7.60029 1.30213,10.98893 -2.67092,3.38791 -7.60038,3.97225 -10.98903,1.3014 z m 8.70678,-11.0468 c -2.70306,-2.13045 -6.63481,-1.66433 -8.76496,1.03831 -2.13014,2.70264 -1.66432,6.63483 1.0383,8.76496 2.70262,2.13014 6.63523,1.66463 8.76536,-1.03799 2.12974,-2.70295 1.66392,-6.63514 -1.0387,-8.76528 z"
             inkscape:connector-curvature="0" />
          <circle
             r="7.0327721"
             transform="rotate(38.244169)"
             id="circle1574"
             cy="36.667267"
             cx="129.85735"
             style="fill:#a14ff7;fill-opacity:1;stroke-width:0.52778774" />
          <path
             inkscape:connector-curvature="0"
             id="circle1468-5-27"
             d="m 76.017303,115.51207 a 7.0327726,7.0327726 0 0 0 6.11811,-0.006 7.0327726,7.0327726 0 0 0 3.81806,-7.7241 l -0.40801,0.83995 a 7.0327726,7.0327726 0 0 1 -3.89961,5.46975 7.0327726,7.0327726 0 0 1 -7.3028,-0.7162 l -0.33101,0.68143 a 7.0327726,7.0327726 0 0 0 2.00523,1.45548 z"
             style="fill:#ffffff;fill-opacity:1;stroke-width:0.52778774" />
          <path
             style="stroke-width:0.52778774"
             id="path1578"
             d="m 74.446353,115.32643 c -3.38823,-2.67053 -3.97256,-7.59997 -1.30172,-10.98863 2.67053,-3.38823 7.59997,-3.97257 10.98863,-1.30172 3.38865,2.67084 3.97296,7.6003 1.30212,10.98895 -2.6709,3.38791 -7.60078,3.9719 -10.98903,1.3014 z m 8.70679,-11.0468 c -2.70265,-2.13016 -6.63482,-1.66433 -8.76496,1.03831 -2.13013,2.70261 -1.66433,6.6348 1.03831,8.76494 2.70304,2.13047 6.63523,1.66465 8.76536,-1.03797 2.12974,-2.70298 1.66391,-6.63515 -1.03871,-8.76528 z"
             inkscape:connector-curvature="0" />
          <circle
             r="7.0327721"
             transform="rotate(38.244169)"
             id="circle1584"
             cy="36.667267"
             cx="106.73973"
             style="fill:#a14ff7;fill-opacity:1;stroke-width:0.52778774" />
          <path
             inkscape:connector-curvature="0"
             id="circle1468-5-9"
             d="m 63.781143,88.41846 a 7.0327726,7.0327726 0 0 0 -6.11449,0.21052 7.0327726,7.0327726 0 0 0 -3.55814,7.84723 l 0.37975,-0.8531 a 7.0327726,7.0327726 0 0 1 3.71488,-5.59686 7.0327726,7.0327726 0 0 1 7.32263,0.47207 l 0.30808,-0.6921 a 7.0327726,7.0327726 0 0 0 -2.05268,-1.38775 z"
             style="fill:#ffffff;fill-opacity:1;stroke-width:0.52778774" />
          <path
             sodipodi:nodetypes="ccccccccc"
             inkscape:connector-curvature="0"
             id="circle1468-5-1-2-0"
             d="m 58.428103,101.26016 c 2.01018,0.75193 4.25368,0.54481 6.09221,-0.56244 2.74611,-1.65891 4.02142,-4.96603 3.10012,-8.03919 l -0.32996,0.87356 c -0.0725,2.38279 -1.48893,4.18865 -3.52801,5.4236 -2.26132,1.36196 -4.95314,1.72086 -7.19592,0.32858 l -0.2677,0.70869 c 0.62915,0.54508 1.35008,0.97414 2.12923,1.26719 z"
             style="fill:#8b40e5;fill-opacity:1;stroke-width:0.52778774" />
          <path
             style="stroke-width:0.52778774"
             id="path1588"
             d="m 56.289833,101.01595 c -3.38825,-2.67052 -3.97257,-7.59996 -1.30172,-10.98861 2.6705,-3.38825 7.59996,-3.97256 10.98861,-1.30172 3.38865,2.67083 3.97298,7.60029 1.30214,10.98893 -2.67053,3.38823 -7.60039,3.97225 -10.98903,1.3014 z m 8.70677,-11.0468 c -2.70264,-2.13013 -6.63481,-1.66433 -8.76496,1.03831 -2.13014,2.70262 -1.66431,6.63483 1.03831,8.76496 2.70303,2.13046 6.63522,1.66463 8.76536,-1.03798 2.13015,-2.70264 1.66433,-6.63481 -1.03871,-8.76529 z"
             inkscape:connector-curvature="0" />
          <path
             id="path1446"
             d="m 70.433503,84.52108 c 0,0 1.7391,-11.87077 -10.60036,-14.28361 0,0 -1.68588,12.6751 10.60036,14.28361 z"
             style="fill:#ccff00;fill-opacity:1;stroke-width:0.52778774"
             inkscape:connector-curvature="0" />
          <path
             inkscape:connector-curvature="0"
             id="path1446-1"
             d="m 60.203403,70.6886 c 0,0 -0.814,6.13053 2.82257,10.40556 -2.64645,-4.14207 -1.97198,-9.24801 -1.97198,-9.24801 3.75911,0.73505 6.20999,2.34837 7.80314,4.23592 -1.52112,-2.36648 -4.14522,-4.51188 -8.65373,-5.39347 z"
             style="fill:#ffffff;fill-opacity:1;stroke-width:0.52778774" />
          <path
             style="stroke-width:0.52778774"
             id="path1450"
             d="m 67.983493,84.83205 v 0 c -10.37777,-2.91353 -8.95059,-14.58134 -8.93516,-14.69871 l 0.11084,-0.83391 0.8257,0.16157 c 0.515,0.10065 1.02083,0.2203 1.50357,0.35581 11.29754,3.17177 9.74529,14.70302 9.72813,14.81881 l -0.11298,0.7714 -0.77299,-0.1014 c -0.8197,-0.10685 -1.60973,-0.2667 -2.34704,-0.47371 z m -7.42574,-13.62368 c -0.036,1.02267 0.006,2.8271 0.54503,4.74632 1.07204,3.81819 3.53067,6.29226 7.30819,7.35279 l 4.9e-4,1.4e-4 c 0.41771,0.11726 0.85545,0.21779 1.30811,0.30032 0.12562,-2.52315 -0.27619,-10.20868 -9.16182,-12.39962 z"
             inkscape:connector-curvature="0" />
        </g>
        <g
           id="g3236">
          <g
             id="text2710"
             style="font-style:normal;font-weight:normal;font-size:56.15973282px;line-height:1.25;font-family:sans-serif;letter-spacing:0px;word-spacing:0px;fill:#000000;fill-opacity:1;stroke:none;stroke-width:1.40399337"
             aria-label="Grape">
            <path
               inkscape:connector-curvature="0"
               id="path3203"
               style="font-style:normal;font-variant:normal;font-weight:bold;font-stretch:normal;font-family:Uroob;-inkscape-font-specification:'Uroob Bold';fill:#000000;fill-opacity:1;stroke-width:1.40399337"
               d="m 113.22619,94.822329 q 1.67272,0 1.67272,1.2614 v 16.782111 h -4.77138 v -1.42593 q -1.6453,1.42593 -3.83904,1.42593 h -6.307006 q -2.5228,0 -4.25037,-1.59046 -1.837257,-1.61789 -1.837257,-4.08584 V 83.52457 q 0,-2.495378 2.138896,-4.168105 2.029209,-1.617883 4.552007,-1.617883 h 8.28137 q 2.44053,0 4.19553,1.672727 1.78241,1.672726 1.78241,4.113261 v 2.248583 h -4.96334 q 0,-1.837256 -0.21937,-2.440535 -0.43875,-1.2614 -1.94694,-1.2614 h -6.8006 q -1.069444,0 -1.563036,0.685544 -0.493591,0.685543 -0.493591,1.672726 v 22.101922 q 0,2.05663 2.056627,2.05663 h 5.0456 q 1.56304,0 2.68734,-1.09686 1.12429,-1.06945 1.12429,-2.63249 v -5.264977 h -4.44233 v -3.509984 q 0,-0.987182 0.60328,-1.179135 0.41133,-0.137108 0.8775,-0.08227 z" />
            <path
               inkscape:connector-curvature="0"
               id="path3205"
               style="font-style:normal;font-variant:normal;font-weight:bold;font-stretch:normal;font-family:Uroob;-inkscape-font-specification:'Uroob Bold';fill:#000000;fill-opacity:1;stroke-width:1.40399337"
               d="m 130.1454,90.188054 -2.76959,-0.02742 q -3.45514,0 -4.49717,2.495378 -0.35648,0.850074 -0.35648,1.946944 v 18.235464 h -4.68912 l -0.0274,-24.295669 q -1.20656,0 -1.20656,-0.904918 v -1.590461 h 5.40208 v 2.495379 q 0.38391,-1.09687 1.39851,-1.809835 1.01461,-0.712966 2.16632,-0.712966 h 4.57943 z" />
            <path
               inkscape:connector-curvature="0"
               id="path3207"
               style="font-style:normal;font-variant:normal;font-weight:bold;font-stretch:normal;font-family:Uroob;-inkscape-font-specification:'Uroob Bold';fill:#000000;fill-opacity:1;stroke-width:1.40399337"
               d="m 146.90009,92.518903 q 0,-2.303427 -2.22116,-2.303427 h -4.99076 q -0.82265,0 -1.28882,0.521013 -0.43875,0.493592 -0.46617,1.288822 h -4.71654 q 0.0548,-2.495379 1.56304,-4.168105 1.59046,-1.782413 4.03099,-1.782413 h 7.32161 q 2.35827,0 3.89389,1.754991 1.48077,1.672727 1.48077,4.08584 v 20.950216 h -4.57943 v -1.06945 q -1.48077,1.15171 -2.9067,1.15171 h -4.49717 q -2.49538,0 -4.44232,-1.53562 -2.11148,-1.67272 -2.11148,-4.05841 v -5.21014 q 0,-2.413109 2.11148,-4.085835 1.97436,-1.563039 4.44232,-1.563039 h 5.31982 q 1.09687,0 2.05663,0.603278 z m -0.0823,13.930247 v -3.4003 q 0,-1.04202 -0.60327,-1.75499 -0.57586,-0.74039 -1.70015,-0.74039 h -4.6617 q -1.15171,0 -1.67273,0.74039 -0.52101,0.71297 -0.52101,1.75499 v 3.4003 q 0,1.04203 0.52101,1.78241 0.52102,0.71297 1.67273,0.71297 h 4.6617 q 1.12429,0 1.70015,-0.71297 0.60327,-0.74038 0.60327,-1.78241 z" />
            <path
               inkscape:connector-curvature="0"
               id="path3209"
               style="font-style:normal;font-variant:normal;font-weight:bold;font-stretch:normal;font-family:Uroob;-inkscape-font-specification:'Uroob Bold';fill:#000000;fill-opacity:1;stroke-width:1.40399337"
               d="m 158.58175,87.473302 q 1.78241,-1.288822 3.97615,-1.288822 h 1.91952 q 3.48257,0 5.56662,2.001787 2.08405,1.974366 2.08405,5.539192 v 10.968701 q 0,5.73114 -3.86646,7.51356 -1.34367,0.60327 -3.23577,0.60327 h -3.01639 q -1.78242,0 -3.01639,-1.34366 v 13.40923 h -4.74397 l 0.0274,-38.69208 h 4.30521 z m 8.85722,16.864368 v -9.954089 q 0,-2.138896 -0.46617,-2.851861 -0.85007,-1.316244 -2.82444,-1.316244 h -2.35827 q -0.85007,0 -1.53561,0.438748 -1.2614,0.767809 -1.2614,1.590461 v 13.793135 q 0,0.82266 0.71296,1.5082 1.28882,1.20656 2.08405,1.20656 h 2.35827 q 2.74218,0 3.1535,-2.71476 0.13711,-0.79523 0.13711,-1.70015 z" />
            <path
               inkscape:connector-curvature="0"
               id="path3211"
               style="font-style:normal;font-variant:normal;font-weight:bold;font-stretch:normal;font-family:Uroob;-inkscape-font-specification:'Uroob Bold';fill:#000000;fill-opacity:1;stroke-width:1.40399337"
               d="m 192.50245,106.72337 q -0.0823,4.14068 -3.20834,5.64888 -1.04203,0.49359 -2.3857,0.49359 h -6.49895 q -2.44054,0 -4.05842,-1.78242 -1.59046,-1.72757 -1.59046,-4.19552 V 91.915624 q 0,-2.440535 1.42593,-4.140683 1.56304,-1.809835 3.94873,-1.809835 h 6.96513 q 2.44053,0 3.94873,1.946944 1.39851,1.782413 1.39851,4.277792 v 3.564827 q 0,2.413113 -1.28883,4.058418 -1.37108,1.782413 -3.7842,1.782413 h -8.00715 v 4.96334 q 0,2.19374 2.22117,2.19374 h 4.1681 q 0.93234,0 1.48077,-0.52102 0.57586,-0.54843 0.54844,-1.50819 z M 181.5886,90.215476 q -2.22117,0 -2.22117,2.303427 v 5.018179 h 6.00537 q 1.04202,0 1.75499,-0.575857 0.74038,-0.603278 0.74038,-1.72757 v -2.824439 q 0,-1.151714 -0.74038,-1.672727 -0.71297,-0.521013 -1.75499,-0.521013 z" />
          </g>
          <g
             id="text2838"
             style="font-style:normal;font-weight:normal;font-size:6.66357756px;line-height:1.25;font-family:sans-serif;letter-spacing:0px;word-spacing:0px;fill:#808080;fill-opacity:1;stroke:none;stroke-width:0.16658942"
             aria-label="Machine     Learning">
            <path
               inkscape:connector-curvature="0"
               id="path3172"
               style="font-style:normal;font-variant:normal;font-weight:bold;font-stretch:normal;font-family:Uroob;-inkscape-font-specification:'Uroob Bold';fill:#808080;fill-opacity:1;stroke-width:0.16658942"
               d="m 135.71484,116.17558 q 0,-0.18872 0.31236,-0.1692 0.0748,0.007 0.12364,0.007 v 0.003 h 0.0683 l 0.99889,2.26133 1.00214,-2.26133 h 0.0358 v -0.003 h 0.27331 q 0.11713,0 0.1757,0.0976 0.0195,0.0293 0.0195,0.0651 v 3.99554 h -0.59868 v -2.57368 l -0.62471,1.48369 h -0.56289 l -0.62471,-1.34703 v 2.43702 h -0.59868 z" />
            <path
               inkscape:connector-curvature="0"
               id="path3174"
               style="font-style:normal;font-variant:normal;font-weight:bold;font-stretch:normal;font-family:Uroob;-inkscape-font-specification:'Uroob Bold';fill:#808080;fill-opacity:1;stroke-width:0.16658942"
               d="m 140.71578,117.75687 q 0,-0.27331 -0.26355,-0.27331 h -0.59218 q -0.0976,0 -0.15292,0.0618 -0.0521,0.0586 -0.0553,0.15293 h -0.55964 q 0.007,-0.29609 0.18546,-0.49456 0.18872,-0.2115 0.4783,-0.2115 h 0.86873 q 0.27982,0 0.46203,0.20824 0.1757,0.19848 0.1757,0.4848 v 2.48583 h -0.54337 v -0.12689 q -0.1757,0.13665 -0.34489,0.13665 h -0.53361 q -0.29609,0 -0.5271,-0.18221 -0.25053,-0.19847 -0.25053,-0.48154 v -0.61821 q 0,-0.28632 0.25053,-0.4848 0.23427,-0.18546 0.5271,-0.18546 h 0.63122 q 0.13015,0 0.24403,0.0716 z m -0.01,1.65288 v -0.40345 q 0,-0.12365 -0.0716,-0.20824 -0.0683,-0.0879 -0.20173,-0.0879 h -0.55312 q -0.13666,0 -0.19848,0.0879 -0.0618,0.0846 -0.0618,0.20824 v 0.40345 q 0,0.12364 0.0618,0.21149 0.0618,0.0846 0.19848,0.0846 h 0.55312 q 0.13341,0 0.20173,-0.0846 0.0716,-0.0879 0.0716,-0.21149 z" />
            <path
               inkscape:connector-curvature="0"
               id="path3176"
               style="font-style:normal;font-variant:normal;font-weight:bold;font-stretch:normal;font-family:Uroob;-inkscape-font-specification:'Uroob Bold';fill:#808080;fill-opacity:1;stroke-width:0.16658942"
               d="m 142.39794,117.48356 q -0.26355,0 -0.26355,0.27331 v 1.6659 q 0,0.26029 0.26355,0.26029 h 0.46202 q 0.11063,0 0.1757,-0.0618 0.0651,-0.0651 0.0651,-0.17895 h 0.55964 q -0.01,0.49131 -0.38069,0.67026 -0.12364,0.0586 -0.28307,0.0586 h -0.73859 q -0.28958,0 -0.48155,-0.21149 -0.18871,-0.20498 -0.18871,-0.49782 v -1.77652 q 0,-0.28632 0.1757,-0.4848 0.18221,-0.20824 0.46202,-0.20824 h 0.77113 q 0.28958,0 0.47829,0.2115 0.17896,0.19847 0.18547,0.49456 h -0.55964 q -0.003,-0.0944 -0.0586,-0.15293 -0.0521,-0.0618 -0.14967,-0.0618 z" />
            <path
               inkscape:connector-curvature="0"
               id="path3178"
               style="font-style:normal;font-variant:normal;font-weight:bold;font-stretch:normal;font-family:Uroob;-inkscape-font-specification:'Uroob Bold';fill:#808080;fill-opacity:1;stroke-width:0.16658942"
               d="m 146.09089,120.16787 h -0.55638 v -2.39147 q 0,-0.12364 -0.0716,-0.20824 -0.0683,-0.0879 -0.20172,-0.0879 h -0.40997 q -0.1334,0 -0.20173,0.0748 -0.12364,0.1269 -0.12364,0.25379 v 2.35894 h -0.55638 l -0.003,-4.14522 h 0.56289 v 1.08999 q 0.12039,-0.11388 0.28307,-0.11388 h 0.5206 q 0.28632,0 0.51733,0.18872 0.24078,0.19847 0.24078,0.48154 z" />
            <path
               inkscape:connector-curvature="0"
               id="path3180"
               style="font-style:normal;font-variant:normal;font-weight:bold;font-stretch:normal;font-family:Uroob;-inkscape-font-specification:'Uroob Bold';fill:#808080;fill-opacity:1;stroke-width:0.16658942"
               d="m 146.69933,116.04868 q 0.35791,0 0.35791,0.36442 0,0.36766 -0.35791,0.36766 -0.1757,0 -0.27006,-0.0944 -0.0943,-0.0976 -0.0943,-0.27331 0,-0.1757 0.0943,-0.27006 0.0944,-0.0944 0.27006,-0.0944 z m 0.27331,4.10617 h -0.55963 v -3.1626 h 0.55963 z" />
            <path
               inkscape:connector-curvature="0"
               id="path3182"
               style="font-style:normal;font-variant:normal;font-weight:bold;font-stretch:normal;font-family:Uroob;-inkscape-font-specification:'Uroob Bold';fill:#808080;fill-opacity:1;stroke-width:0.16658942"
               d="m 147.78281,117.18748 q 0.18872,-0.18872 0.38069,-0.18872 h 0.55312 q 0.28308,0 0.48481,0.19197 0.20823,0.19197 0.20823,0.47829 v 2.49885 h -0.55638 v -2.39147 q 0,-0.12364 -0.0716,-0.20824 -0.0683,-0.0879 -0.20173,-0.0879 h -0.47504 q -0.19197,0 -0.24403,0.23752 -0.0163,0.0651 -0.0163,0.12364 v 2.3264 h -0.55638 l -0.003,-3.16911 h 0.49781 z" />
            <path
               inkscape:connector-curvature="0"
               id="path3184"
               style="font-style:normal;font-variant:normal;font-weight:bold;font-stretch:normal;font-family:Uroob;-inkscape-font-specification:'Uroob Bold';fill:#808080;fill-opacity:1;stroke-width:0.16658942"
               d="m 151.84018,119.44229 q -0.01,0.49131 -0.38069,0.67026 -0.12364,0.0586 -0.28307,0.0586 h -0.77113 q -0.28957,0 -0.48154,-0.21149 -0.18872,-0.20498 -0.18872,-0.49782 v -1.77652 q 0,-0.28958 0.1692,-0.49131 0.18546,-0.21474 0.46853,-0.21474 h 0.82644 q 0.28958,0 0.46853,0.23101 0.16594,0.21149 0.16594,0.50758 v 0.42298 q 0,0.28633 -0.15292,0.48155 -0.16269,0.21149 -0.44902,0.21149 h -0.95008 v 0.58892 q 0,0.26029 0.26355,0.26029 h 0.49457 q 0.11062,0 0.1757,-0.0618 0.0683,-0.0651 0.0651,-0.17895 z m -1.29498,-1.95873 q -0.26355,0 -0.26355,0.27331 v 0.59543 h 0.71256 q 0.12365,0 0.20824,-0.0683 0.0879,-0.0716 0.0879,-0.20498 v -0.33513 q 0,-0.13666 -0.0879,-0.19848 -0.0846,-0.0618 -0.20824,-0.0618 z" />
            <path
               inkscape:connector-curvature="0"
               id="path3186"
               style="font-style:normal;font-variant:normal;font-weight:bold;font-stretch:normal;font-family:Uroob;-inkscape-font-specification:'Uroob Bold';fill:#808080;fill-opacity:1;stroke-width:0.16658942"
               d="m 161.98521,120.17112 q -0.63121,0 -0.63121,-0.54988 v -3.60835 h 0.58892 v 3.43591 q 0,0.13015 0.0195,0.16268 0.039,0.0521 0.15943,0.0521 h 1.10626 v 0.50758 z" />
            <path
               inkscape:connector-curvature="0"
               id="path3188"
               style="font-style:normal;font-variant:normal;font-weight:bold;font-stretch:normal;font-family:Uroob;-inkscape-font-specification:'Uroob Bold';fill:#808080;fill-opacity:1;stroke-width:0.16658942"
               d="m 165.66189,119.44229 q -0.01,0.49131 -0.38068,0.67026 -0.12364,0.0586 -0.28307,0.0586 h -0.77113 q -0.28958,0 -0.48154,-0.21149 -0.18872,-0.20498 -0.18872,-0.49782 v -1.77652 q 0,-0.28958 0.16919,-0.49131 0.18546,-0.21474 0.46854,-0.21474 h 0.82644 q 0.28958,0 0.46853,0.23101 0.16594,0.21149 0.16594,0.50758 v 0.42298 q 0,0.28633 -0.15293,0.48155 -0.16268,0.21149 -0.44901,0.21149 h -0.95008 v 0.58892 q 0,0.26029 0.26355,0.26029 h 0.49456 q 0.11063,0 0.1757,-0.0618 0.0683,-0.0651 0.0651,-0.17895 z m -1.29497,-1.95873 q -0.26355,0 -0.26355,0.27331 v 0.59543 h 0.71256 q 0.12364,0 0.20824,-0.0683 0.0879,-0.0716 0.0879,-0.20498 v -0.33513 q 0,-0.13666 -0.0879,-0.19848 -0.0846,-0.0618 -0.20824,-0.0618 z" />
            <path
               inkscape:connector-curvature="0"
               id="path3190"
               style="font-style:normal;font-variant:normal;font-weight:bold;font-stretch:normal;font-family:Uroob;-inkscape-font-specification:'Uroob Bold';fill:#808080;fill-opacity:1;stroke-width:0.16658942"
               d="m 167.60435,117.75687 q 0,-0.27331 -0.26355,-0.27331 h -0.59217 q -0.0976,0 -0.15292,0.0618 -0.0521,0.0586 -0.0553,0.15293 h -0.55963 q 0.006,-0.29609 0.18546,-0.49456 0.18871,-0.2115 0.47829,-0.2115 h 0.86874 q 0.27982,0 0.46203,0.20824 0.1757,0.19848 0.1757,0.4848 v 2.48583 h -0.54337 v -0.12689 q -0.1757,0.13665 -0.3449,0.13665 h -0.5336 q -0.29609,0 -0.5271,-0.18221 -0.25054,-0.19847 -0.25054,-0.48154 v -0.61821 q 0,-0.28632 0.25054,-0.4848 0.23427,-0.18546 0.5271,-0.18546 h 0.63122 q 0.13014,0 0.24402,0.0716 z m -0.01,1.65288 v -0.40345 q 0,-0.12365 -0.0716,-0.20824 -0.0683,-0.0879 -0.20173,-0.0879 h -0.55313 q -0.13665,0 -0.19847,0.0879 -0.0618,0.0846 -0.0618,0.20824 v 0.40345 q 0,0.12364 0.0618,0.21149 0.0618,0.0846 0.19847,0.0846 h 0.55313 q 0.1334,0 0.20173,-0.0846 0.0716,-0.0879 0.0716,-0.21149 z" />
            <path
               inkscape:connector-curvature="0"
               id="path3192"
               style="font-style:normal;font-variant:normal;font-weight:bold;font-stretch:normal;font-family:Uroob;-inkscape-font-specification:'Uroob Bold';fill:#808080;fill-opacity:1;stroke-width:0.16658942"
               d="m 169.93726,117.48031 -0.32863,-0.003 q -0.40996,0 -0.5336,0.29608 -0.0423,0.10087 -0.0423,0.23102 v 2.16371 h -0.55639 l -0.003,-2.88278 q -0.14316,0 -0.14316,-0.10737 V 116.989 h 0.64098 v 0.29609 q 0.0455,-0.13015 0.16594,-0.21475 0.12038,-0.0846 0.25704,-0.0846 h 0.54337 z" />
            <path
               inkscape:connector-curvature="0"
               id="path3194"
               style="font-style:normal;font-variant:normal;font-weight:bold;font-stretch:normal;font-family:Uroob;-inkscape-font-specification:'Uroob Bold';fill:#808080;fill-opacity:1;stroke-width:0.16658942"
               d="m 170.75393,117.18748 q 0.18872,-0.18872 0.38069,-0.18872 h 0.55313 q 0.28307,0 0.4848,0.19197 0.20823,0.19197 0.20823,0.47829 v 2.49885 h -0.55638 v -2.39147 q 0,-0.12364 -0.0716,-0.20824 -0.0683,-0.0879 -0.20173,-0.0879 h -0.47504 q -0.19197,0 -0.24403,0.23752 -0.0163,0.0651 -0.0163,0.12364 v 2.3264 h -0.55639 l -0.003,-3.16911 h 0.49781 z" />
            <path
               inkscape:connector-curvature="0"
               id="path3196"
               style="font-style:normal;font-variant:normal;font-weight:bold;font-stretch:normal;font-family:Uroob;-inkscape-font-specification:'Uroob Bold';fill:#808080;fill-opacity:1;stroke-width:0.16658942"
               d="m 172.98923,116.04868 q 0.3579,0 0.3579,0.36442 0,0.36766 -0.3579,0.36766 -0.1757,0 -0.27006,-0.0944 -0.0944,-0.0976 -0.0944,-0.27331 0,-0.1757 0.0944,-0.27006 0.0944,-0.0944 0.27006,-0.0944 z m 0.27331,4.10617 h -0.55964 v -3.1626 h 0.55964 z" />
            <path
               inkscape:connector-curvature="0"
               id="path3198"
               style="font-style:normal;font-variant:normal;font-weight:bold;font-stretch:normal;font-family:Uroob;-inkscape-font-specification:'Uroob Bold';fill:#808080;fill-opacity:1;stroke-width:0.16658942"
               d="m 174.07271,117.18748 q 0.18871,-0.18872 0.38068,-0.18872 h 0.55313 q 0.28307,0 0.4848,0.19197 0.20824,0.19197 0.20824,0.47829 v 2.49885 h -0.55638 v -2.39147 q 0,-0.12364 -0.0716,-0.20824 -0.0683,-0.0879 -0.20173,-0.0879 h -0.47504 q -0.19197,0 -0.24403,0.23752 -0.0163,0.0651 -0.0163,0.12364 v 2.3264 h -0.55638 l -0.003,-3.16911 h 0.49782 z" />
            <path
               inkscape:connector-curvature="0"
               id="path3200"
               style="font-style:normal;font-variant:normal;font-weight:bold;font-stretch:normal;font-family:Uroob;-inkscape-font-specification:'Uroob Bold';fill:#808080;fill-opacity:1;stroke-width:0.16658942"
               d="m 177.16047,117.00527 q 0.2603,0 0.47179,0.15292 v -0.15292 h 0.51083 l 0.003,3.76778 q 0,0.30585 -0.14316,0.54337 -0.16594,0.26681 -0.46203,0.26681 h -0.71581 q -0.23101,0 -0.40997,-0.14317 -0.18871,-0.15617 -0.18871,-0.38068 v -0.20824 h 0.49456 q -0.003,0.10412 0.0651,0.17245 0.0716,0.0683 0.1757,0.0683 h 0.28958 q 0.21149,0 0.3026,-0.13991 0.0293,-0.0456 0.0293,-0.11063 v -0.8362 q -0.218,0.15943 -0.35791,0.15943 h -0.3579 q -0.42624,0 -0.64749,-0.27331 -0.19522,-0.24728 -0.19522,-0.68978 v -1.30148 q 0,-0.41648 0.24403,-0.654 0.24728,-0.24077 0.66375,-0.24077 z m 0.42298,2.35568 v -1.63661 q 0,-0.14967 -0.23101,-0.22125 -0.0553,-0.0195 -0.10087,-0.0195 h -0.27981 q -0.33514,0 -0.37743,0.29284 -0.013,0.0911 -0.013,0.20173 v 1.18109 q 0,0.24403 0.0553,0.34164 0.10412,0.1822 0.33514,0.1822 h 0.27981 q 0.0944,0 0.17896,-0.0781 0.15292,-0.14642 0.15292,-0.24403 z" />
          </g>
        </g>
      </g>
    </g>
  </g>
</svg>
